<?xml version="1.0"?>
<svg xmlns="http://www.w3.org/2000/svg" height="512px" viewBox="-56 0 448 448" width="512px"><g><path d="m.734375 116.71875c-.085937.210938-.125.425781-.199219.640625-.25.707031-.402344 1.445313-.4453122 2.191406 0 .152344-.0898438.289063-.0898438.449219v320c0 4.417969 3.582031 8 8 8h320c4.417969 0 8-3.582031 8-8v-432c0-4.417969-3.582031-8-8-8h-216c-.167969 0-.304688.0898438-.464844.0976562-.746094.0351558-1.480468.1835938-2.183594.4374998-.273437.085938-.539062.1875-.800781.304688-.65625.316406-1.265625.726562-1.808593 1.214844-.171876.125-.339844.257812-.503907.402343 0 0-.085937.054688-.117187.09375l-104 112c-.578125.644531-1.046875 1.375-1.386719 2.167969zm103.265625-88.34375v83.625h-77.65625zm-88 99.625h96c4.417969 0 8-3.582031 8-8v-104h200v416h-304zm0 0" data-original="#000000" class="active-path" data-old_color="#000000" fill="#818181"/><path d="m133.257812 205.929688c.574219-.535157 1.066407-1.152344 1.453126-1.832032.195312-.257812.375-.523437.535156-.800781 1.003906-2.082031 1.003906-4.511719 0-6.59375-.15625-.277344-.335938-.546875-.535156-.800781-.386719-.683594-.878907-1.300782-1.453126-1.839844-.105468-.09375-.144531-.230469-.257812-.320312l-40-32c-3.449219-2.757813-8.488281-2.199219-11.246094 1.25-2.761718 3.449218-2.203125 8.488281 1.246094 11.246093l22.191406 17.761719h-25.191406c-4.417969 0-8 3.582031-8 8s3.582031 8 8 8h25.191406l-22.191406 17.753906c-3.449219 2.757813-4.007812 7.796875-1.246094 11.246094 2.757813 3.449219 7.796875 4.007812 11.246094 1.246094l40-32c.113281-.085938.152344-.222656.257812-.316406zm0 0" data-original="#000000" class="active-path" data-old_color="#000000" fill="#818181"/><path d="m256 192h-25.191406l22.191406-17.753906c3.449219-2.757813 4.007812-7.796875 1.246094-11.246094-2.757813-3.449219-7.796875-4.007812-11.246094-1.246094l-40 32c-.113281.085938-.152344.222656-.257812.316406-.574219.535157-1.066407 1.152344-1.453126 1.832032-.195312.257812-.375.523437-.535156.800781-1.003906 2.082031-1.003906 4.511719 0 6.59375.160156.277344.339844.542969.535156.800781.386719.679688.878907 1.296875 1.453126 1.832032.105468.09375.144531.230468.257812.316406l40 32c3.449219 2.761718 8.488281 2.203125 11.246094-1.246094 2.761718-3.449219 2.203125-8.488281-1.246094-11.246094l-22.191406-17.753906h25.191406c4.417969 0 8-3.582031 8-8s-3.582031-8-8-8zm0 0" data-original="#000000" class="active-path" data-old_color="#000000" fill="#818181"/><path d="m168 264c-29.367188-.085938-55.820312 17.746094-66.761719 45-1.621093 4.085938.363281 8.71875 4.4375 10.367188 4.078125 1.648437 8.71875-.300782 10.394531-4.367188 8.550782-21.171875 29.097657-35.035156 51.929688-35.035156s43.378906 13.863281 51.929688 35.035156c1.058593 2.667969 3.464843 4.566406 6.308593 4.96875 2.839844.40625 5.683594-.742188 7.445313-3.011719 1.757812-2.265625 2.171875-5.304687 1.078125-7.957031-10.941407-27.253906-37.394531-45.085938-66.761719-45zm0 0" data-original="#000000" class="active-path" data-old_color="#000000" fill="#818181"/></g> </svg>
